<svg fill="#500724" width="140" height="140" viewBox="0 0 140 140" xmlns="http://www.w3.org/2000/svg">
<path d="M104.396 11.4438C102.949 10.6714 101.486 9.4032 99.8732 8.00521C96.4619 5.04842 92.3809 1.5112 86.3709 0.857799C80.401 0.208754 76.4809 1.09183 73.6231 1.7356C72.2436 2.04635 71.1117 2.30133 70.1162 2.30134C69.2214 2.30135 67.8857 1.958 66.246 1.53655C62.2824 0.517714 56.543 -0.957572 50.9646 0.857799C43.4532 3.30223 40.1762 7.34732 39.8818 7.72607C40.9917 9.56111 41.6302 11.7113 41.6302 14.0101C41.6302 20.7424 36.1541 26.2 29.3989 26.2C29.3989 32.9324 23.9228 38.39 17.1677 38.39C14.7799 38.39 12.5518 37.708 10.669 36.5289L10.4083 36.786C10.4083 36.786 2.03951 44.4849 0.752014 52.3442C-0.0958862 57.5199 0.801163 61.4436 1.55858 64.7565C1.95126 66.4741 2.30644 68.0276 2.36139 69.5063C2.41759 71.0186 1.94389 73.0981 1.40634 75.4579C0.404556 79.8558 -0.819046 85.2275 0.752014 89.7159C2.39445 94.4084 5.52684 97.9129 7.86833 100.533C8.96838 101.763 9.89386 102.799 10.4083 103.67C10.9092 104.519 11.4569 106.051 12.1193 107.905C13.5851 112.006 15.6127 117.679 18.938 120.993C22.0454 124.09 27.0862 125.858 31.1426 127.281C33.3887 128.068 35.3331 128.75 36.4802 129.494C37.423 130.104 38.3381 130.963 39.3712 131.932C41.8653 134.271 45.047 137.256 50.9646 138.957C56.2586 140.479 60.4578 139.883 64.1325 139.361C66.2667 139.058 68.2241 138.78 70.1162 138.957C71.1359 139.052 72.1873 139.191 73.2889 139.337C77.7506 139.929 83.0373 140.629 90.3944 138.957C96.5296 137.562 98.5616 134.733 100.246 132.388C101.08 131.227 101.828 130.184 102.948 129.494C104.12 128.77 106.027 128.125 108.22 127.382C112.352 125.983 117.497 124.241 120.651 120.993C124.189 117.349 125.999 113.274 127.663 109.527C128.27 108.16 128.857 106.838 129.502 105.595C130.342 103.977 131.571 102.631 132.884 101.192C135.348 98.494 138.109 95.4695 139.159 89.7159C140.111 84.4964 139.598 81.0736 139.121 77.8862C138.791 75.6866 138.479 73.599 138.676 71.1103C138.8 69.5461 139.019 67.9713 139.244 66.3561C139.895 61.6777 140.594 56.6605 139.159 50.5798C137.909 45.2879 135.111 42.681 132.724 40.4576C131.421 39.2442 130.241 38.1451 129.502 36.786C128.853 35.5913 128.328 34.0413 127.734 32.2894C126.415 28.3964 124.757 23.5064 120.651 19.3031C116.705 15.2642 112.829 14.1834 109.353 13.2138C107.583 12.7202 105.916 12.2554 104.396 11.4438Z"/>
</svg>
