<svg width="230" height="225" viewBox="0 0 230 225" fill="none" xmlns="http://www.w3.org/2000/svg">
<path d="M193.878 -13.7473C191.192 -15.1816 188.474 -17.5369 185.479 -20.1332C179.144 -25.6244 171.565 -32.1935 160.403 -33.4069C149.316 -34.6123 142.036 -32.9723 136.729 -31.7767C134.167 -31.1996 132.065 -30.7261 130.216 -30.7261C128.554 -30.7261 126.073 -31.3637 123.028 -32.1464C115.667 -34.0385 105.008 -36.7783 94.6485 -33.4069C80.6988 -28.8673 74.6129 -21.355 74.0663 -20.6516C76.1275 -17.2437 77.3132 -13.2504 77.3132 -8.9812C77.3132 3.52165 67.1433 13.6572 54.598 13.6572C54.598 26.1601 44.4281 36.2956 31.8828 36.2956C27.4483 36.2956 23.3106 35.0292 19.8139 32.8395L19.3297 33.3168C19.3297 33.3168 3.78766 47.6149 1.39661 62.2106C-0.17807 71.8227 1.48788 79.1095 2.8945 85.262C3.62378 88.4519 4.28339 91.3371 4.38544 94.0831C4.48981 96.8916 3.61011 100.754 2.61179 105.136C0.751312 113.304 -1.52109 123.28 1.39661 131.615C4.44684 140.33 10.2641 146.838 14.6126 151.703C16.6556 153.989 18.3743 155.912 19.3297 157.53C20.2599 159.106 21.2771 161.952 22.5072 165.394C25.2294 173.011 28.9949 183.546 35.1705 189.701C40.9415 195.452 50.303 198.736 57.8363 201.378C62.0076 202.841 65.6186 204.108 67.7489 205.488C69.4998 206.622 71.1993 208.216 73.118 210.016C77.7499 214.361 83.6587 219.903 94.6485 223.063C104.48 225.889 112.279 224.782 119.103 223.813C123.067 223.25 126.702 222.734 130.216 223.063C132.11 223.24 134.062 223.498 136.108 223.769C144.394 224.867 154.212 226.168 167.875 223.063C179.269 220.473 183.043 215.218 186.17 210.863C187.719 208.707 189.11 206.771 191.188 205.488C193.365 204.145 196.908 202.946 200.981 201.566C208.653 198.968 218.209 195.733 224.066 189.701C230.637 182.934 233.997 175.367 237.088 168.407C238.215 165.869 239.306 163.413 240.504 161.105C242.063 158.101 244.346 155.601 246.785 152.928C251.36 147.917 256.488 142.301 258.437 131.615C260.206 121.922 259.254 115.565 258.367 109.646C257.755 105.561 257.174 101.684 257.541 97.0619C257.771 94.157 258.178 91.2323 258.596 88.2327C259.806 79.5444 261.103 70.2267 258.437 58.934C256.117 49.1061 250.92 44.2648 246.487 40.1356C244.068 37.8822 241.876 35.8408 240.504 33.3168C239.298 31.0981 238.323 28.2195 237.22 24.966C234.77 17.7361 231.692 8.65476 224.066 0.848564C216.737 -6.65219 209.54 -8.65934 203.084 -10.4601C199.797 -11.3768 196.701 -12.24 193.878 -13.7473Z" fill="#FDF2F8"/>
</svg>
